<svg width="252" height="84" viewBox="0 0 252 84" fill="none" xmlns="http://www.w3.org/2000/svg">
<rect x="5" y="41.5" width="15" height="30" fill="#F2003A"/>
<rect x="99" y="41.5" width="15" height="30" fill="#F2003A"/>
<path d="M83.5 1C79.9 7.4 69.3333 10.3333 64.5 11C34.179 9.03111 19.7842 30.1599 16.1636 41.4714L19.5 48.5C22 37.8333 33.4 16.5 59 16.5C84.6 16.5 96.3333 36.8333 99 47L104 44C102.8 39.2 97.5 31.3333 95 28C104.6 16.4 101 4.5 98 0C96.4 6.8 89.3333 10.1667 86 11C86.8 5.40001 84.6667 2 83.5 1Z" fill="#F2003A"/>
<path d="M39 78H53.5C55.9 76 56.1667 72.1667 56 70.5L28 47L39 78Z" fill="#BFE603"/>
<path d="M53 74.5C53 76.433 51.433 78 49.5 78C47.567 78 46 76.433 46 74.5C46 72.567 47.567 71 49.5 71C51.433 71 53 72.567 53 74.5Z" fill="white"/>
<path d="M80.0157 78H65.5364C63.1398 76 62.8735 72.1667 63.04 70.5L91 47L80.0157 78Z" fill="#BFE603"/>
<path d="M66.0357 74.5C66.0357 76.433 67.6004 78 69.5307 78C71.4609 78 73.0257 76.433 73.0257 74.5C73.0257 72.567 71.4609 71 69.5307 71C67.6004 71 66.0357 72.567 66.0357 74.5Z" fill="white"/>
<path d="M56 80.5H58V83.5H56V80.5Z" fill="#F2003A"/>
<path d="M61 80.5H63V83.5H61V80.5Z" fill="#F2003A"/>
<rect y="46.5" width="4" height="21" fill="#F2003A"/>
<rect x="115" y="46.5" width="4" height="21" fill="#F2003A"/>
<path d="M135.535 39C137.234 39 138.578 39.476 139.567 40.428C140.575 41.38 141.079 42.668 141.079 44.292C141.079 44.4787 141.06 44.796 141.023 45.244C140.874 46.4573 140.472 47.5307 139.819 48.464C139.166 49.3973 138.316 50.116 137.271 50.62C136.244 51.124 135.087 51.376 133.799 51.376H130.495C130.42 51.376 130.364 51.4227 130.327 51.516L129.515 58.264C129.496 58.3573 129.45 58.4413 129.375 58.516C129.319 58.572 129.244 58.6 129.151 58.6H125.287C125.194 58.6 125.119 58.572 125.063 58.516C125.007 58.4413 124.988 58.3573 125.007 58.264L127.331 39.336C127.35 39.2427 127.387 39.168 127.443 39.112C127.518 39.0373 127.602 39 127.695 39H135.535ZM133.743 47.68C134.564 47.68 135.236 47.428 135.759 46.924C136.282 46.42 136.543 45.7667 136.543 44.964C136.543 44.3667 136.338 43.8907 135.927 43.536C135.535 43.1627 135.003 42.976 134.331 42.976H131.531C131.456 42.976 131.4 43.0227 131.363 43.116L130.831 47.54C130.794 47.6333 130.831 47.68 130.943 47.68H133.743ZM143.293 58.6C143.2 58.6 143.125 58.572 143.069 58.516C143.013 58.4413 142.994 58.3573 143.013 58.264L145.337 39.336C145.337 39.2427 145.374 39.168 145.449 39.112C145.524 39.0373 145.608 39 145.701 39H149.537C149.742 39 149.845 39.112 149.845 39.336L147.969 54.484C147.969 54.5773 148.006 54.624 148.081 54.624H156.761C156.854 54.624 156.929 54.6613 156.985 54.736C157.041 54.792 157.06 54.8667 157.041 54.96L156.649 58.264C156.631 58.3573 156.584 58.4413 156.509 58.516C156.435 58.572 156.35 58.6 156.257 58.6H143.293ZM172.819 58.6C172.725 58.6 172.65 58.572 172.594 58.516C172.538 58.46 172.501 58.3947 172.482 58.32L172.09 55.828C172.053 55.7533 172.007 55.716 171.951 55.716H165.763C165.707 55.716 165.66 55.7533 165.622 55.828L164.614 58.32C164.521 58.5067 164.381 58.6 164.194 58.6H160.05C159.938 58.6 159.855 58.572 159.799 58.516C159.761 58.4413 159.77 58.3387 159.826 58.208L167.946 39.28C168.04 39.0933 168.171 39 168.339 39H173.462C173.63 39 173.743 39.0933 173.799 39.28L177.299 58.208V58.32C177.299 58.5067 177.196 58.6 176.99 58.6H172.819ZM167.19 51.964C167.134 52.076 167.162 52.132 167.274 52.132H171.306C171.4 52.132 171.446 52.076 171.446 51.964L170.271 44.768C170.252 44.6933 170.224 44.6653 170.187 44.684C170.149 44.684 170.121 44.712 170.103 44.768L167.19 51.964ZM183.657 58.544C183.564 58.544 183.489 58.516 183.433 58.46C183.377 58.3853 183.359 58.3013 183.377 58.208L184.189 51.572C184.227 51.516 184.227 51.46 184.189 51.404L180.101 39.392C180.083 39.3547 180.073 39.308 180.073 39.252C180.073 39.084 180.176 39 180.381 39H184.581C184.749 39 184.861 39.084 184.917 39.252L187.017 46.336C187.055 46.448 187.111 46.448 187.185 46.336L191.049 39.252C191.124 39.084 191.255 39 191.441 39H195.669C195.781 39 195.856 39.0373 195.893 39.112C195.949 39.168 195.94 39.2613 195.865 39.392L188.725 51.404L188.669 51.572L187.857 58.208C187.839 58.3013 187.792 58.3853 187.717 58.46C187.661 58.516 187.587 58.544 187.493 58.544H183.657ZM207.435 58.6C207.249 58.6 207.127 58.516 207.071 58.348L204.803 50.9C204.766 50.8253 204.71 50.788 204.635 50.788H202.843C202.75 50.788 202.703 50.8347 202.703 50.928L201.807 58.264C201.789 58.3573 201.742 58.4413 201.667 58.516C201.611 58.572 201.537 58.6 201.443 58.6H197.579C197.486 58.6 197.411 58.572 197.355 58.516C197.299 58.4413 197.281 58.3573 197.299 58.264L199.623 39.336C199.623 39.2427 199.661 39.168 199.735 39.112C199.81 39.0373 199.894 39 199.987 39H208.051C209.694 39 210.991 39.4667 211.943 40.4C212.895 41.3333 213.371 42.5933 213.371 44.18C213.371 44.3667 213.353 44.6653 213.315 45.076C213.147 46.3267 212.709 47.4093 211.999 48.324C211.29 49.2387 210.375 49.9013 209.255 50.312C209.162 50.3493 209.134 50.4147 209.171 50.508L211.803 58.208C211.822 58.2453 211.831 58.292 211.831 58.348C211.831 58.516 211.719 58.6 211.495 58.6H207.435ZM203.823 42.976C203.711 42.976 203.655 43.0227 203.655 43.116L203.179 47.092C203.142 47.1853 203.179 47.232 203.291 47.232H206.315C207.043 47.232 207.641 47.008 208.107 46.56C208.593 46.112 208.835 45.524 208.835 44.796C208.835 44.236 208.649 43.7973 208.275 43.48C207.921 43.144 207.435 42.976 206.819 42.976H203.823ZM231.059 42.64C231.04 42.7333 230.994 42.8173 230.919 42.892C230.863 42.948 230.788 42.976 230.695 42.976H222.183C222.071 42.976 222.015 43.0227 222.015 43.116L221.595 46.56C221.595 46.6533 221.632 46.7 221.707 46.7H227.167C227.26 46.7 227.335 46.7373 227.391 46.812C227.447 46.868 227.466 46.9427 227.447 47.036L227.055 50.312C227.036 50.4053 226.99 50.4893 226.915 50.564C226.859 50.62 226.784 50.648 226.691 50.648H221.231C221.156 50.648 221.1 50.6947 221.063 50.788L220.615 54.484C220.615 54.5773 220.652 54.624 220.727 54.624H229.267C229.36 54.624 229.435 54.6613 229.491 54.736C229.547 54.792 229.566 54.8667 229.547 54.96L229.155 58.264C229.136 58.3573 229.09 58.4413 229.015 58.516C228.959 58.572 228.884 58.6 228.791 58.6H215.939C215.846 58.6 215.771 58.572 215.715 58.516C215.659 58.4413 215.64 58.3573 215.659 58.264L217.983 39.336C217.983 39.2427 218.02 39.168 218.095 39.112C218.17 39.0373 218.254 39 218.347 39H231.199C231.292 39 231.367 39.0373 231.423 39.112C231.479 39.168 231.498 39.2427 231.479 39.336L231.059 42.64ZM232.616 58.6C232.504 58.6 232.42 58.5627 232.364 58.488C232.326 58.4133 232.345 58.32 232.42 58.208L238.72 48.884C238.757 48.828 238.757 48.772 238.72 48.716L234.744 39.392C234.725 39.3547 234.716 39.308 234.716 39.252C234.716 39.084 234.818 39 235.024 39H239.224C239.41 39 239.532 39.0747 239.588 39.224L241.94 45.104C241.996 45.1787 242.052 45.1787 242.108 45.104L245.916 39.224C246.009 39.0747 246.158 39 246.364 39H250.536C250.704 39 250.788 39.056 250.788 39.168C250.788 39.224 250.76 39.2987 250.704 39.392L244.46 48.716C244.441 48.7533 244.432 48.8093 244.432 48.884L248.408 58.208C248.426 58.2453 248.436 58.292 248.436 58.348C248.436 58.4227 248.408 58.488 248.352 58.544C248.296 58.5813 248.221 58.6 248.128 58.6H243.984C243.816 58.6 243.685 58.5253 243.592 58.376L241.184 52.524C241.146 52.4307 241.1 52.4307 241.044 52.524L237.208 58.376C237.114 58.5253 236.974 58.6 236.788 58.6H232.616Z" fill="white"/>
<rect x="97" y="27" width="155" height="3" fill="#F10619"/>
<rect x="114" y="68" width="138" height="3" fill="#F10619"/>
<circle cx="49.5" cy="74.5" r="3.5" fill="#F2003A"/>
<circle cx="69.5" cy="74.5" r="3.5" fill="#F2003A"/>
</svg>
