<svg width="124" height="128" viewBox="0 0 124 128" fill="none" xmlns="http://www.w3.org/2000/svg">
<g clip-path="url(#clip0_107_309)">
<path d="M11.716 88.327C12.9853 88.327 14.1053 88.5883 15.076 89.111C16.0653 89.6337 16.8213 90.371 17.344 91.323C17.8853 92.2563 18.156 93.339 18.156 94.571C18.156 95.7843 17.876 96.8577 17.316 97.791C16.7747 98.7243 16 99.443 14.992 99.947C13.984 100.451 12.8173 100.703 11.492 100.703H8.076C7.98267 100.703 7.936 100.75 7.936 100.843V107.591C7.936 107.684 7.89867 107.768 7.824 107.843C7.768 107.899 7.69333 107.927 7.6 107.927H3.624C3.53067 107.927 3.44667 107.899 3.372 107.843C3.316 107.768 3.288 107.684 3.288 107.591V88.663C3.288 88.5697 3.316 88.495 3.372 88.439C3.44667 88.3643 3.53067 88.327 3.624 88.327H11.716ZM10.96 97.007C11.7253 97.007 12.3413 96.7923 12.808 96.363C13.2933 95.9337 13.536 95.3737 13.536 94.683C13.536 93.9737 13.2933 93.4043 12.808 92.975C12.3413 92.527 11.7253 92.303 10.96 92.303H8.076C7.98267 92.303 7.936 92.3497 7.936 92.443V96.867C7.936 96.9603 7.98267 97.007 8.076 97.007H10.96ZM20.4424 107.927C20.349 107.927 20.265 107.899 20.1904 107.843C20.1344 107.768 20.1064 107.684 20.1064 107.591V88.663C20.1064 88.5697 20.1344 88.495 20.1904 88.439C20.265 88.3643 20.349 88.327 20.4424 88.327H24.4184C24.5117 88.327 24.5864 88.3643 24.6424 88.439C24.717 88.495 24.7544 88.5697 24.7544 88.663V103.811C24.7544 103.904 24.801 103.951 24.8944 103.951H33.8264C33.9197 103.951 33.9944 103.988 34.0504 104.063C34.125 104.119 34.1624 104.194 34.1624 104.287V107.591C34.1624 107.684 34.125 107.768 34.0504 107.843C33.9944 107.899 33.9197 107.927 33.8264 107.927H20.4424ZM49.1719 107.927C48.9666 107.927 48.8359 107.834 48.7799 107.647L48.0519 105.155C48.0146 105.08 47.9679 105.043 47.9119 105.043H41.5279C41.4719 105.043 41.4252 105.08 41.3879 105.155L40.6599 107.647C40.6039 107.834 40.4732 107.927 40.2679 107.927H35.9839C35.8719 107.927 35.7879 107.899 35.7319 107.843C35.6759 107.768 35.6666 107.666 35.7039 107.535L41.6959 88.607C41.7519 88.4203 41.8732 88.327 42.0599 88.327H47.3519C47.5386 88.327 47.6599 88.4203 47.7159 88.607L53.7359 107.535C53.7546 107.572 53.7639 107.619 53.7639 107.675C53.7639 107.843 53.6612 107.927 53.4559 107.927H49.1719ZM42.5079 101.291C42.4892 101.403 42.5266 101.459 42.6199 101.459H46.7919C46.9039 101.459 46.9412 101.403 46.9039 101.291L44.7759 94.095C44.7572 94.0203 44.7292 93.9923 44.6919 94.011C44.6546 94.011 44.6266 94.039 44.6079 94.095L42.5079 101.291ZM58.7083 107.871C58.615 107.871 58.531 107.843 58.4563 107.787C58.4003 107.712 58.3723 107.628 58.3723 107.535V100.899C58.3723 100.824 58.363 100.768 58.3443 100.731L52.6043 88.719C52.567 88.6443 52.5483 88.5883 52.5483 88.551C52.5483 88.4017 52.651 88.327 52.8563 88.327H57.1683C57.355 88.327 57.4856 88.411 57.5603 88.579L60.6123 95.663C60.6683 95.775 60.7243 95.775 60.7803 95.663L63.8603 88.579C63.935 88.411 64.0656 88.327 64.2523 88.327H68.5923C68.723 88.327 68.807 88.3643 68.8443 88.439C68.9003 88.495 68.9003 88.5883 68.8443 88.719L63.0203 100.731C63.0016 100.768 62.9923 100.824 62.9923 100.899V107.535C62.9923 107.628 62.955 107.712 62.8803 107.787C62.8243 107.843 62.7496 107.871 62.6563 107.871H58.7083ZM81.4658 107.927C81.2791 107.927 81.1484 107.843 81.0738 107.675L77.7698 100.227C77.7324 100.152 77.6764 100.115 77.6018 100.115H75.7538C75.6604 100.115 75.6138 100.162 75.6138 100.255V107.591C75.6138 107.684 75.5764 107.768 75.5018 107.843C75.4458 107.899 75.3711 107.927 75.2778 107.927H71.3018C71.2084 107.927 71.1244 107.899 71.0498 107.843C70.9938 107.768 70.9658 107.684 70.9658 107.591V88.663C70.9658 88.5697 70.9938 88.495 71.0498 88.439C71.1244 88.3643 71.2084 88.327 71.3018 88.327H79.6178C80.8498 88.327 81.9324 88.579 82.8658 89.083C83.7991 89.587 84.5178 90.3057 85.0217 91.239C85.5444 92.1537 85.8058 93.2083 85.8058 94.403C85.8058 95.6537 85.4978 96.7363 84.8818 97.651C84.2658 98.5657 83.4071 99.2283 82.3058 99.639C82.2124 99.6763 82.1844 99.7417 82.2218 99.835L85.9178 107.535C85.9551 107.61 85.9738 107.666 85.9738 107.703C85.9738 107.852 85.8711 107.927 85.6658 107.927H81.4658ZM75.7538 92.303C75.6604 92.303 75.6138 92.3497 75.6138 92.443V96.419C75.6138 96.5123 75.6604 96.559 75.7538 96.559H78.8618C79.5524 96.559 80.1124 96.3723 80.5418 95.999C80.9711 95.607 81.1858 95.0937 81.1858 94.459C81.1858 93.8057 80.9711 93.283 80.5418 92.891C80.1124 92.499 79.5524 92.303 78.8618 92.303H75.7538ZM102.081 91.967C102.081 92.0603 102.044 92.1443 101.969 92.219C101.913 92.275 101.838 92.303 101.745 92.303H92.953C92.8596 92.303 92.813 92.3497 92.813 92.443V95.887C92.813 95.9803 92.8596 96.027 92.953 96.027H98.581C98.6743 96.027 98.749 96.0643 98.805 96.139C98.8796 96.195 98.917 96.2697 98.917 96.363V99.639C98.917 99.7323 98.8796 99.8163 98.805 99.891C98.749 99.947 98.6743 99.975 98.581 99.975H92.953C92.8596 99.975 92.813 100.022 92.813 100.115V103.811C92.813 103.904 92.8596 103.951 92.953 103.951H101.745C101.838 103.951 101.913 103.988 101.969 104.063C102.044 104.119 102.081 104.194 102.081 104.287V107.591C102.081 107.684 102.044 107.768 101.969 107.843C101.913 107.899 101.838 107.927 101.745 107.927H88.501C88.4076 107.927 88.3236 107.899 88.249 107.843C88.193 107.768 88.165 107.684 88.165 107.591V88.663C88.165 88.5697 88.193 88.495 88.249 88.439C88.3236 88.3643 88.4076 88.327 88.501 88.327H101.745C101.838 88.327 101.913 88.3643 101.969 88.439C102.044 88.495 102.081 88.5697 102.081 88.663V91.967ZM104.017 107.927C103.886 107.927 103.793 107.89 103.737 107.815C103.681 107.74 103.69 107.647 103.765 107.535L109.057 98.211C109.094 98.155 109.094 98.099 109.057 98.043L103.765 88.719L103.709 88.551C103.709 88.4017 103.812 88.327 104.017 88.327H108.329C108.534 88.327 108.674 88.4017 108.749 88.551L111.913 94.431C111.969 94.5057 112.025 94.5057 112.081 94.431L115.273 88.551C115.348 88.4017 115.488 88.327 115.693 88.327H120.005C120.136 88.327 120.22 88.3643 120.257 88.439C120.294 88.5137 120.285 88.607 120.229 88.719L114.965 98.043C114.946 98.099 114.946 98.155 114.965 98.211L120.229 107.535C120.266 107.61 120.285 107.666 120.285 107.703C120.285 107.852 120.192 107.927 120.005 107.927H115.721C115.534 107.927 115.394 107.852 115.301 107.703L112.081 101.851C112.025 101.758 111.969 101.758 111.913 101.851L108.721 107.703C108.628 107.852 108.488 107.927 108.301 107.927H104.017Z" fill="white"/>
<path d="M111.01 118.01H0V121.01H111.01V118.01Z" fill="#F2003A"/>
<path d="M123.01 125H12V128H123.01V125Z" fill="#BFE603"/>
<rect x="7" y="42" width="15" height="30" fill="#F2003A"/>
<rect x="101" y="42" width="15" height="30" fill="#F2003A"/>
<path d="M85.5 1.5C81.9 7.9 71.3333 10.8333 66.5 11.5C36.179 9.53111 21.7842 30.6599 18.1636 41.9714L21.5 49C24 38.3333 35.4 17 61 17C86.6 17 98.3333 37.3333 101 47.5L106 44.5C104.8 39.7 99.5 31.8333 97 28.5C106.6 16.9 103 5 100 0.5C98.4 7.3 91.3333 10.6667 88 11.5C88.8 5.90001 86.6667 2.5 85.5 1.5Z" fill="#F2003A"/>
<path d="M41 78H55.5C57.9 76 58.1667 72.1667 58 70.5L30 47L41 78Z" fill="#BFE603"/>
<path d="M55 74.5C55 76.433 53.433 78 51.5 78C49.567 78 48 76.433 48 74.5C48 72.567 49.567 71 51.5 71C53.433 71 55 72.567 55 74.5Z" fill="white"/>
<path d="M82.04 78H67.54C65.14 76 64.8734 72.1667 65.04 70.5L93.04 47L82.04 78Z" fill="#BFE603"/>
<path d="M68.04 74.5C68.04 76.433 69.607 78 71.54 78C73.473 78 75.04 76.433 75.04 74.5C75.04 72.567 73.473 71 71.54 71C69.607 71 68.04 72.567 68.04 74.5Z" fill="white"/>
<path d="M58 81H60V84H58V81Z" fill="#F2003A"/>
<path d="M63 81H65V84H63V81Z" fill="#F2003A"/>
<rect x="2" y="47" width="4" height="21" fill="#F2003A"/>
<rect x="117" y="47" width="4" height="21" fill="#F2003A"/>
</g>
<defs>
<clipPath id="clip0_107_309">
<rect width="124" height="128" fill="white"/>
</clipPath>
</defs>
</svg>
